<?xml version="1.0" encoding="UTF-8"?>
<svg xmlns="http://www.w3.org/2000/svg" version="1.1" width="1020" height="1020" viewBox="0 0 1020 1020"><rect x="0" y="0" width="1020" height="1020" fill="#ffffff"/><g transform="scale(35.172)"><g transform="translate(0,0)"><path fill-rule="evenodd" d="M8 0L8 1L9 1L9 2L8 2L8 5L9 5L9 4L11 4L11 5L10 5L10 10L8 10L8 9L9 9L9 8L8 8L8 9L7 9L7 8L6 8L6 9L7 9L7 10L6 10L6 11L9 11L9 13L8 13L8 12L6 12L6 13L7 13L7 14L5 14L5 13L4 13L4 14L5 14L5 15L4 15L4 16L3 16L3 15L2 15L2 16L1 16L1 17L2 17L2 18L4 18L4 19L2 19L2 20L1 20L1 21L2 21L2 20L3 20L3 21L7 21L7 20L6 20L6 19L8 19L8 22L9 22L9 23L10 23L10 27L9 27L9 25L8 25L8 29L9 29L9 28L10 28L10 29L12 29L12 28L14 28L14 27L15 27L15 28L17 28L17 27L19 27L19 26L21 26L21 27L20 27L20 28L18 28L18 29L22 29L22 26L21 26L21 25L24 25L24 26L25 26L25 27L23 27L23 28L24 28L24 29L25 29L25 27L26 27L26 26L27 26L27 24L26 24L26 23L27 23L27 22L26 22L26 21L27 21L27 19L28 19L28 22L29 22L29 19L28 19L28 16L27 16L27 19L26 19L26 17L25 17L25 16L26 16L26 15L29 15L29 13L28 13L28 14L27 14L27 12L26 12L26 13L25 13L25 16L24 16L24 17L25 17L25 18L23 18L23 19L25 19L25 20L22 20L22 17L21 17L21 15L22 15L22 14L23 14L23 15L24 15L24 14L23 14L23 13L22 13L22 12L24 12L24 10L25 10L25 9L27 9L27 11L28 11L28 10L29 10L29 8L28 8L28 9L27 9L27 8L24 8L24 9L22 9L22 8L21 8L21 9L20 9L20 8L19 8L19 6L20 6L20 7L21 7L21 6L20 6L20 5L21 5L21 3L20 3L20 2L18 2L18 3L16 3L16 2L17 2L17 1L16 1L16 0L15 0L15 1L16 1L16 2L15 2L15 3L14 3L14 5L13 5L13 3L12 3L12 4L11 4L11 2L14 2L14 0L12 0L12 1L11 1L11 0L10 0L10 1L9 1L9 0ZM19 0L19 1L20 1L20 0ZM16 4L16 5L14 5L14 6L13 6L13 5L12 5L12 6L11 6L11 8L12 8L12 6L13 6L13 8L14 8L14 9L15 9L15 10L14 10L14 11L11 11L11 13L10 13L10 14L11 14L11 13L12 13L12 12L13 12L13 14L12 14L12 16L11 16L11 15L9 15L9 14L7 14L7 15L5 15L5 16L4 16L4 18L5 18L5 19L4 19L4 20L5 20L5 19L6 19L6 18L7 18L7 17L8 17L8 18L11 18L11 19L10 19L10 20L11 20L11 21L9 21L9 22L10 22L10 23L14 23L14 22L15 22L15 23L16 23L16 24L19 24L19 25L20 25L20 23L18 23L18 22L20 22L20 21L19 21L19 20L21 20L21 17L19 17L19 16L20 16L20 15L19 15L19 14L18 14L18 15L17 15L17 13L16 13L16 14L14 14L14 12L15 12L15 11L17 11L17 12L18 12L18 11L20 11L20 12L21 12L21 11L23 11L23 10L18 10L18 9L17 9L17 7L18 7L18 5L19 5L19 4ZM16 5L16 7L17 7L17 5ZM8 6L8 7L9 7L9 6ZM14 6L14 7L15 7L15 6ZM0 8L0 9L1 9L1 12L0 12L0 14L1 14L1 13L2 13L2 12L4 12L4 11L5 11L5 9L4 9L4 8ZM11 9L11 10L12 10L12 9ZM2 10L2 11L4 11L4 10ZM17 10L17 11L18 11L18 10ZM21 13L21 14L22 14L22 13ZM13 14L13 15L14 15L14 18L13 18L13 21L15 21L15 20L16 20L16 18L17 18L17 21L18 21L18 19L19 19L19 17L18 17L18 18L17 18L17 15L14 15L14 14ZM2 16L2 17L3 17L3 16ZM6 16L6 17L5 17L5 18L6 18L6 17L7 17L7 16ZM8 16L8 17L9 17L9 16ZM12 16L12 17L13 17L13 16ZM15 16L15 17L16 17L16 16ZM0 18L0 19L1 19L1 18ZM11 19L11 20L12 20L12 19ZM21 21L21 24L24 24L24 21ZM16 22L16 23L17 23L17 22ZM22 22L22 23L23 23L23 22ZM25 22L25 23L26 23L26 22ZM28 23L28 24L29 24L29 23ZM12 24L12 26L11 26L11 27L10 27L10 28L12 28L12 26L13 26L13 27L14 27L14 26L15 26L15 27L17 27L17 25L16 25L16 26L15 26L15 24ZM13 25L13 26L14 26L14 25ZM25 25L25 26L26 26L26 25ZM28 25L28 27L27 27L27 29L28 29L28 27L29 27L29 25ZM0 0L0 7L7 7L7 0ZM1 1L1 6L6 6L6 1ZM2 2L2 5L5 5L5 2ZM22 0L22 7L29 7L29 0ZM23 1L23 6L28 6L28 1ZM24 2L24 5L27 5L27 2ZM0 22L0 29L7 29L7 22ZM1 23L1 28L6 28L6 23ZM2 24L2 27L5 27L5 24Z" fill="#000000"/></g></g></svg>
