<?xml version="1.0" encoding="UTF-8"?>
<svg xmlns="http://www.w3.org/2000/svg" version="1.1" width="1020" height="1020" viewBox="0 0 1020 1020"><rect x="0" y="0" width="1020" height="1020" fill="#ffffff"/><g transform="scale(35.172)"><g transform="translate(0,0)"><path fill-rule="evenodd" d="M10 0L10 2L11 2L11 0ZM12 0L12 1L13 1L13 2L12 2L12 4L13 4L13 3L14 3L14 4L17 4L17 5L15 5L15 6L14 6L14 8L16 8L16 9L19 9L19 10L20 10L20 11L22 11L22 10L24 10L24 11L23 11L23 12L25 12L25 13L22 13L22 12L19 12L19 11L18 11L18 12L17 12L17 11L16 11L16 10L15 10L15 9L12 9L12 7L13 7L13 5L11 5L11 6L10 6L10 4L11 4L11 3L8 3L8 4L9 4L9 5L8 5L8 7L9 7L9 8L6 8L6 9L10 9L10 11L11 11L11 9L12 9L12 10L13 10L13 11L12 11L12 13L13 13L13 12L14 12L14 13L16 13L16 14L15 14L15 15L14 15L14 16L15 16L15 17L12 17L12 15L13 15L13 14L11 14L11 16L10 16L10 18L9 18L9 19L8 19L8 17L7 17L7 16L6 16L6 15L8 15L8 14L9 14L9 15L10 15L10 14L9 14L9 13L11 13L11 12L8 12L8 14L6 14L6 13L7 13L7 12L6 12L6 13L5 13L5 16L4 16L4 19L3 19L3 18L2 18L2 17L3 17L3 16L2 16L2 17L1 17L1 16L0 16L0 21L1 21L1 18L2 18L2 19L3 19L3 20L4 20L4 21L7 21L7 20L9 20L9 19L10 19L10 20L11 20L11 19L10 19L10 18L11 18L11 17L12 17L12 18L13 18L13 19L12 19L12 21L13 21L13 20L14 20L14 21L18 21L18 22L19 22L19 24L17 24L17 23L16 23L16 22L15 22L15 23L14 23L14 24L15 24L15 25L12 25L12 23L13 23L13 22L11 22L11 21L10 21L10 23L11 23L11 24L8 24L8 29L9 29L9 26L10 26L10 27L11 27L11 25L12 25L12 26L13 26L13 27L12 27L12 29L13 29L13 28L14 28L14 29L20 29L20 28L22 28L22 27L23 27L23 29L24 29L24 28L25 28L25 26L24 26L24 25L27 25L27 28L26 28L26 29L27 29L27 28L28 28L28 26L29 26L29 25L27 25L27 24L28 24L28 22L29 22L29 21L28 21L28 20L29 20L29 19L28 19L28 18L29 18L29 16L25 16L25 17L24 17L24 16L23 16L23 17L22 17L22 16L21 16L21 14L22 14L22 15L26 15L26 14L29 14L29 13L27 13L27 12L25 12L25 10L26 10L26 11L28 11L28 10L29 10L29 9L28 9L28 8L27 8L27 9L28 9L28 10L26 10L26 8L25 8L25 9L24 9L24 8L23 8L23 9L22 9L22 8L21 8L21 4L19 4L19 3L20 3L20 2L21 2L21 0L18 0L18 1L20 1L20 2L18 2L18 3L17 3L17 2L16 2L16 0L15 0L15 1L14 1L14 0ZM8 1L8 2L9 2L9 1ZM14 2L14 3L16 3L16 2ZM17 5L17 7L16 7L16 6L15 6L15 7L16 7L16 8L19 8L19 9L20 9L20 10L21 10L21 9L20 9L20 5ZM9 6L9 7L10 7L10 6ZM11 6L11 7L12 7L12 6ZM18 6L18 7L19 7L19 6ZM0 8L0 9L2 9L2 10L0 10L0 11L2 11L2 12L1 12L1 14L2 14L2 15L4 15L4 13L2 13L2 12L5 12L5 11L2 11L2 10L3 10L3 9L5 9L5 8ZM10 8L10 9L11 9L11 8ZM6 10L6 11L8 11L8 10ZM14 11L14 12L16 12L16 13L17 13L17 14L16 14L16 15L15 15L15 16L16 16L16 17L15 17L15 18L16 18L16 19L14 19L14 20L16 20L16 19L17 19L17 20L18 20L18 21L19 21L19 22L20 22L20 19L21 19L21 20L23 20L23 18L24 18L24 17L23 17L23 18L22 18L22 17L21 17L21 16L20 16L20 14L21 14L21 13L20 13L20 14L18 14L18 13L19 13L19 12L18 12L18 13L17 13L17 12L16 12L16 11ZM25 13L25 14L26 14L26 13ZM18 15L18 16L17 16L17 17L16 17L16 18L17 18L17 17L19 17L19 18L20 18L20 16L19 16L19 15ZM5 17L5 18L7 18L7 17ZM25 17L25 18L28 18L28 17ZM21 18L21 19L22 19L22 18ZM5 19L5 20L7 20L7 19ZM25 19L25 20L27 20L27 19ZM8 21L8 23L9 23L9 21ZM21 21L21 24L24 24L24 21ZM26 21L26 22L25 22L25 24L27 24L27 22L28 22L28 21ZM22 22L22 23L23 23L23 22ZM15 23L15 24L16 24L16 25L15 25L15 26L16 26L16 25L17 25L17 24L16 24L16 23ZM19 24L19 25L18 25L18 26L17 26L17 28L20 28L20 27L22 27L22 26L23 26L23 27L24 27L24 26L23 26L23 25L22 25L22 26L21 26L21 25L20 25L20 24ZM19 25L19 26L18 26L18 27L20 27L20 25ZM14 27L14 28L15 28L15 27ZM10 28L10 29L11 29L11 28ZM0 0L0 7L7 7L7 0ZM1 1L1 6L6 6L6 1ZM2 2L2 5L5 5L5 2ZM22 0L22 7L29 7L29 0ZM23 1L23 6L28 6L28 1ZM24 2L24 5L27 5L27 2ZM0 22L0 29L7 29L7 22ZM1 23L1 28L6 28L6 23ZM2 24L2 27L5 27L5 24Z" fill="#000000"/></g></g></svg>
