<?xml version="1.0" encoding="UTF-8"?>
<svg xmlns="http://www.w3.org/2000/svg" version="1.1" width="1020" height="1020" viewBox="0 0 1020 1020"><rect x="0" y="0" width="1020" height="1020" fill="#ffffff"/><g transform="scale(35.172)"><g transform="translate(0,0)"><path fill-rule="evenodd" d="M8 0L8 1L9 1L9 2L8 2L8 5L9 5L9 4L11 4L11 5L10 5L10 10L8 10L8 11L7 11L7 10L5 10L5 9L4 9L4 8L0 8L0 10L2 10L2 13L1 13L1 12L0 12L0 14L3 14L3 15L2 15L2 17L1 17L1 18L0 18L0 19L1 19L1 18L2 18L2 20L1 20L1 21L2 21L2 20L3 20L3 21L4 21L4 20L5 20L5 21L7 21L7 20L9 20L9 19L7 19L7 18L8 18L8 17L10 17L10 19L11 19L11 20L10 20L10 22L9 22L9 21L8 21L8 22L9 22L9 25L8 25L8 29L10 29L10 27L9 27L9 25L10 25L10 26L12 26L12 28L11 28L11 29L12 29L12 28L14 28L14 27L15 27L15 28L16 28L16 29L17 29L17 28L16 28L16 27L15 27L15 26L16 26L16 25L17 25L17 26L18 26L18 28L19 28L19 29L22 29L22 26L21 26L21 25L24 25L24 26L25 26L25 27L23 27L23 28L24 28L24 29L25 29L25 27L26 27L26 26L27 26L27 24L26 24L26 23L28 23L28 24L29 24L29 23L28 23L28 22L29 22L29 19L28 19L28 16L29 16L29 11L27 11L27 10L26 10L26 9L27 9L27 8L24 8L24 9L22 9L22 8L20 8L20 7L21 7L21 5L20 5L20 4L19 4L19 3L21 3L21 0L18 0L18 1L20 1L20 2L18 2L18 3L17 3L17 1L16 1L16 0L15 0L15 1L16 1L16 4L15 4L15 3L14 3L14 5L13 5L13 3L12 3L12 4L11 4L11 2L14 2L14 0L12 0L12 1L11 1L11 0L10 0L10 1L9 1L9 0ZM16 4L16 5L14 5L14 6L13 6L13 5L12 5L12 6L11 6L11 8L12 8L12 6L13 6L13 8L14 8L14 9L15 9L15 10L14 10L14 11L11 11L11 13L10 13L10 14L11 14L11 13L12 13L12 12L13 12L13 14L12 14L12 16L11 16L11 19L12 19L12 20L11 20L11 23L10 23L10 24L11 24L11 23L14 23L14 22L15 22L15 24L12 24L12 26L13 26L13 27L14 27L14 26L15 26L15 24L16 24L16 23L17 23L17 24L18 24L18 26L19 26L19 28L20 28L20 27L21 27L21 26L19 26L19 25L20 25L20 23L17 23L17 22L18 22L18 21L17 21L17 20L15 20L15 21L13 21L13 18L14 18L14 15L15 15L15 17L16 17L16 16L17 16L17 18L18 18L18 20L21 20L21 17L22 17L22 20L25 20L25 22L27 22L27 21L28 21L28 19L27 19L27 21L26 21L26 19L23 19L23 18L25 18L25 17L24 17L24 16L26 16L26 18L27 18L27 15L28 15L28 14L27 14L27 15L25 15L25 14L26 14L26 12L27 12L27 11L26 11L26 10L21 10L21 9L20 9L20 10L19 10L19 8L18 8L18 9L17 9L17 7L18 7L18 5L19 5L19 4ZM8 6L8 7L9 7L9 6ZM14 6L14 7L15 7L15 8L16 8L16 7L17 7L17 6L16 6L16 7L15 7L15 6ZM19 6L19 7L20 7L20 6ZM6 8L6 9L7 9L7 8ZM8 8L8 9L9 9L9 8ZM28 8L28 10L29 10L29 8ZM2 9L2 10L4 10L4 11L3 11L3 13L4 13L4 14L5 14L5 16L3 16L3 17L6 17L6 18L7 18L7 17L6 17L6 16L10 16L10 15L8 15L8 14L7 14L7 13L5 13L5 12L4 12L4 11L5 11L5 10L4 10L4 9ZM11 9L11 10L12 10L12 9ZM17 10L17 11L15 11L15 12L14 12L14 14L13 14L13 15L14 15L14 14L16 14L16 15L17 15L17 14L18 14L18 15L20 15L20 16L18 16L18 17L21 17L21 15L22 15L22 14L23 14L23 15L24 15L24 14L23 14L23 13L22 13L22 12L23 12L23 11L21 11L21 13L22 13L22 14L20 14L20 13L19 13L19 12L20 12L20 11L18 11L18 10ZM6 11L6 12L7 12L7 11ZM8 11L8 12L9 12L9 11ZM17 11L17 12L16 12L16 13L17 13L17 12L18 12L18 11ZM6 14L6 15L7 15L7 14ZM12 16L12 17L13 17L13 16ZM3 18L3 20L4 20L4 19L5 19L5 20L7 20L7 19L5 19L5 18ZM19 21L19 22L20 22L20 21ZM21 21L21 24L24 24L24 21ZM22 22L22 23L23 23L23 22ZM13 25L13 26L14 26L14 25ZM25 25L25 26L26 26L26 25ZM28 25L28 27L27 27L27 29L28 29L28 27L29 27L29 25ZM0 0L0 7L7 7L7 0ZM1 1L1 6L6 6L6 1ZM2 2L2 5L5 5L5 2ZM22 0L22 7L29 7L29 0ZM23 1L23 6L28 6L28 1ZM24 2L24 5L27 5L27 2ZM0 22L0 29L7 29L7 22ZM1 23L1 28L6 28L6 23ZM2 24L2 27L5 27L5 24Z" fill="#000000"/></g></g></svg>
