<?xml version="1.0" encoding="UTF-8"?>
<svg xmlns="http://www.w3.org/2000/svg" version="1.1" width="1020" height="1020" viewBox="0 0 1020 1020"><rect x="0" y="0" width="1020" height="1020" fill="#ffffff"/><g transform="scale(35.172)"><g transform="translate(0,0)"><path fill-rule="evenodd" d="M8 0L8 1L9 1L9 2L10 2L10 3L11 3L11 1L13 1L13 0L11 0L11 1L9 1L9 0ZM14 0L14 1L17 1L17 2L18 2L18 3L16 3L16 2L15 2L15 3L16 3L16 5L17 5L17 6L16 6L16 7L17 7L17 6L18 6L18 7L19 7L19 6L18 6L18 5L20 5L20 8L17 8L17 9L16 9L16 8L15 8L15 11L17 11L17 12L15 12L15 13L14 13L14 7L15 7L15 6L14 6L14 7L13 7L13 5L12 5L12 4L13 4L13 2L12 2L12 4L11 4L11 5L10 5L10 4L9 4L9 5L10 5L10 8L9 8L9 6L8 6L8 8L9 8L9 9L8 9L8 10L4 10L4 9L5 9L5 8L3 8L3 10L2 10L2 8L0 8L0 9L1 9L1 10L0 10L0 13L1 13L1 16L0 16L0 21L3 21L3 19L4 19L4 20L6 20L6 21L7 21L7 20L8 20L8 22L9 22L9 24L8 24L8 26L9 26L9 27L8 27L8 29L10 29L10 28L9 28L9 27L11 27L11 22L9 22L9 19L8 19L8 18L9 18L9 17L10 17L10 18L11 18L11 19L10 19L10 20L11 20L11 19L12 19L12 21L14 21L14 24L13 24L13 25L12 25L12 26L13 26L13 25L15 25L15 26L14 26L14 27L12 27L12 28L11 28L11 29L13 29L13 28L15 28L15 29L17 29L17 28L15 28L15 27L16 27L16 26L17 26L17 24L18 24L18 23L19 23L19 25L18 25L18 27L19 27L19 25L20 25L20 26L21 26L21 25L23 25L23 26L24 26L24 27L22 27L22 28L25 28L25 27L26 27L26 28L27 28L27 27L28 27L28 28L29 28L29 23L28 23L28 26L27 26L27 25L25 25L25 22L27 22L27 20L28 20L28 21L29 21L29 20L28 20L28 19L29 19L29 18L28 18L28 16L29 16L29 12L28 12L28 11L27 11L27 9L24 9L24 10L22 10L22 9L23 9L23 8L22 8L22 9L21 9L21 4L19 4L19 2L20 2L20 1L21 1L21 0L20 0L20 1L19 1L19 2L18 2L18 0ZM14 4L14 5L15 5L15 4ZM17 4L17 5L18 5L18 4ZM11 5L11 7L12 7L12 9L10 9L10 10L8 10L8 11L1 11L1 13L2 13L2 12L3 12L3 14L2 14L2 16L1 16L1 17L2 17L2 19L3 19L3 17L2 17L2 16L3 16L3 14L4 14L4 15L6 15L6 16L7 16L7 17L6 17L6 18L4 18L4 19L6 19L6 20L7 20L7 19L6 19L6 18L8 18L8 17L9 17L9 16L8 16L8 15L10 15L10 17L14 17L14 16L16 16L16 20L18 20L18 21L16 21L16 22L18 22L18 21L19 21L19 22L20 22L20 21L19 21L19 20L18 20L18 19L19 19L19 17L18 17L18 16L21 16L21 15L23 15L23 16L22 16L22 18L23 18L23 19L22 19L22 20L23 20L23 19L24 19L24 18L23 18L23 17L26 17L26 18L25 18L25 19L26 19L26 18L27 18L27 16L25 16L25 15L23 15L23 14L22 14L22 13L18 13L18 12L21 12L21 10L19 10L19 9L17 9L17 11L18 11L18 12L17 12L17 13L18 13L18 14L16 14L16 15L15 15L15 14L14 14L14 15L12 15L12 16L11 16L11 15L10 15L10 14L13 14L13 13L11 13L11 12L10 12L10 14L9 14L9 13L8 13L8 11L10 11L10 10L12 10L12 11L13 11L13 10L12 10L12 9L13 9L13 7L12 7L12 5ZM6 8L6 9L7 9L7 8ZM28 8L28 9L29 9L29 8ZM25 10L25 11L26 11L26 13L25 13L25 12L24 12L24 11L23 11L23 12L24 12L24 13L25 13L25 14L26 14L26 15L28 15L28 13L27 13L27 11L26 11L26 10ZM4 12L4 13L5 13L5 12ZM6 12L6 13L7 13L7 14L6 14L6 15L8 15L8 13L7 13L7 12ZM26 13L26 14L27 14L27 13ZM18 14L18 15L21 15L21 14ZM16 15L16 16L17 16L17 15ZM17 17L17 19L18 19L18 17ZM20 17L20 18L21 18L21 17ZM12 18L12 19L13 19L13 20L14 20L14 19L15 19L15 18ZM20 19L20 20L21 20L21 19ZM25 20L25 21L26 21L26 20ZM21 21L21 24L24 24L24 21ZM12 22L12 23L13 23L13 22ZM22 22L22 23L23 23L23 22ZM9 24L9 25L10 25L10 24ZM24 25L24 26L25 26L25 25ZM26 26L26 27L27 27L27 26ZM18 28L18 29L21 29L21 28ZM0 0L0 7L7 7L7 0ZM1 1L1 6L6 6L6 1ZM2 2L2 5L5 5L5 2ZM22 0L22 7L29 7L29 0ZM23 1L23 6L28 6L28 1ZM24 2L24 5L27 5L27 2ZM0 22L0 29L7 29L7 22ZM1 23L1 28L6 28L6 23ZM2 24L2 27L5 27L5 24Z" fill="#000000"/></g></g></svg>
