<?xml version="1.0" encoding="UTF-8"?>
<svg xmlns="http://www.w3.org/2000/svg" version="1.1" width="1020" height="1020" viewBox="0 0 1020 1020"><rect x="0" y="0" width="1020" height="1020" fill="#ffffff"/><g transform="scale(35.172)"><g transform="translate(0,0)"><path fill-rule="evenodd" d="M8 0L8 4L10 4L10 3L11 3L11 4L12 4L12 2L11 2L11 0ZM12 0L12 1L13 1L13 0ZM14 0L14 1L15 1L15 0ZM20 0L20 1L19 1L19 2L17 2L17 3L16 3L16 2L15 2L15 3L14 3L14 2L13 2L13 3L14 3L14 4L13 4L13 5L11 5L11 6L10 6L10 7L9 7L9 5L8 5L8 7L9 7L9 8L10 8L10 7L11 7L11 6L12 6L12 8L11 8L11 9L8 9L8 10L6 10L6 9L7 9L7 8L4 8L4 9L2 9L2 8L0 8L0 10L2 10L2 11L0 11L0 12L2 12L2 11L3 11L3 13L4 13L4 15L5 15L5 16L2 16L2 17L1 17L1 15L3 15L3 14L1 14L1 13L0 13L0 14L1 14L1 15L0 15L0 18L3 18L3 19L2 19L2 20L0 20L0 21L2 21L2 20L4 20L4 21L5 21L5 20L4 20L4 19L8 19L8 22L9 22L9 23L8 23L8 25L9 25L9 24L10 24L10 26L9 26L9 27L8 27L8 29L9 29L9 28L10 28L10 27L11 27L11 28L12 28L12 29L14 29L14 27L15 27L15 29L19 29L19 28L18 28L18 27L20 27L20 29L22 29L22 28L23 28L23 29L24 29L24 28L23 28L23 27L24 27L24 25L25 25L25 26L27 26L27 29L28 29L28 28L29 28L29 25L28 25L28 24L29 24L29 21L28 21L28 20L29 20L29 17L28 17L28 15L29 15L29 8L25 8L25 9L24 9L24 8L23 8L23 9L20 9L20 7L21 7L21 6L20 6L20 5L21 5L21 3L20 3L20 2L21 2L21 0ZM9 2L9 3L10 3L10 2ZM17 3L17 4L19 4L19 5L15 5L15 9L13 9L13 8L14 8L14 6L13 6L13 8L12 8L12 9L11 9L11 10L8 10L8 11L9 11L9 13L8 13L8 12L7 12L7 11L4 11L4 10L3 10L3 11L4 11L4 13L5 13L5 15L6 15L6 16L5 16L5 18L7 18L7 17L6 17L6 16L7 16L7 15L6 15L6 14L8 14L8 15L9 15L9 14L10 14L10 15L11 15L11 16L9 16L9 17L10 17L10 18L8 18L8 19L9 19L9 20L10 20L10 21L9 21L9 22L10 22L10 24L12 24L12 25L11 25L11 26L12 26L12 25L13 25L13 26L15 26L15 25L16 25L16 27L17 27L17 26L18 26L18 25L19 25L19 26L20 26L20 27L23 27L23 25L21 25L21 26L20 26L20 25L19 25L19 21L17 21L17 20L16 20L16 19L14 19L14 21L17 21L17 22L16 22L16 24L15 24L15 25L13 25L13 24L14 24L14 23L15 23L15 22L13 22L13 21L12 21L12 20L13 20L13 19L12 19L12 20L10 20L10 18L12 18L12 17L13 17L13 18L15 18L15 17L13 17L13 16L14 16L14 15L15 15L15 14L13 14L13 13L12 13L12 12L13 12L13 11L12 11L12 12L11 12L11 13L10 13L10 11L11 11L11 10L12 10L12 9L13 9L13 10L15 10L15 9L17 9L17 10L16 10L16 11L17 11L17 10L18 10L18 11L19 11L19 12L18 12L18 13L16 13L16 15L18 15L18 16L19 16L19 17L16 17L16 18L17 18L17 19L18 19L18 18L19 18L19 20L20 20L20 19L21 19L21 20L22 20L22 19L21 19L21 18L20 18L20 13L21 13L21 17L23 17L23 20L25 20L25 21L27 21L27 23L25 23L25 25L27 25L27 26L28 26L28 25L27 25L27 23L28 23L28 21L27 21L27 20L28 20L28 17L27 17L27 15L26 15L26 14L22 14L22 13L25 13L25 10L26 10L26 13L28 13L28 11L27 11L27 10L26 10L26 9L25 9L25 10L24 10L24 9L23 9L23 10L22 10L22 11L20 11L20 9L19 9L19 8L18 8L18 9L17 9L17 8L16 8L16 6L17 6L17 7L18 7L18 6L19 6L19 7L20 7L20 6L19 6L19 5L20 5L20 3ZM18 9L18 10L19 10L19 9ZM23 10L23 11L22 11L22 12L23 12L23 11L24 11L24 10ZM14 11L14 13L15 13L15 11ZM5 12L5 13L7 13L7 12ZM18 13L18 15L19 15L19 13ZM12 15L12 16L11 16L11 17L12 17L12 16L13 16L13 15ZM22 15L22 16L23 16L23 17L24 17L24 18L26 18L26 19L27 19L27 17L24 17L24 16L25 16L25 15ZM6 20L6 21L7 21L7 20ZM10 21L10 22L11 22L11 21ZM21 21L21 24L24 24L24 21ZM22 22L22 23L23 23L23 22ZM12 23L12 24L13 24L13 23ZM17 23L17 24L16 24L16 25L18 25L18 23ZM12 27L12 28L13 28L13 27ZM25 28L25 29L26 29L26 28ZM0 0L0 7L7 7L7 0ZM1 1L1 6L6 6L6 1ZM2 2L2 5L5 5L5 2ZM22 0L22 7L29 7L29 0ZM23 1L23 6L28 6L28 1ZM24 2L24 5L27 5L27 2ZM0 22L0 29L7 29L7 22ZM1 23L1 28L6 28L6 23ZM2 24L2 27L5 27L5 24Z" fill="#000000"/></g></g></svg>
